<mxfile host="app.diagrams.net" agent="Mozilla/5.0 (Windows NT 10.0; Win64; x64) AppleWebKit/537.36 (KHTML, like Gecko) Chrome/138.0.0.0 Safari/537.36 Edg/138.0.0.0" version="27.2.0">
  <diagram name="Page-1" id="4B7K2LsZUm8WNHyyl0_R">
    <mxGraphModel dx="981" dy="635" grid="0" gridSize="10" guides="1" tooltips="1" connect="1" arrows="1" fold="1" page="1" pageScale="1" pageWidth="1100" pageHeight="850" math="0" shadow="0">
      <root>
        <mxCell id="0" />
        <mxCell id="1" parent="0" />
        <mxCell id="W5OYuFE3z0aoe5HHRw2m-2" value="" style="verticalLabelPosition=bottom;html=1;verticalAlign=top;align=center;shape=mxgraph.azure.github_code;pointerEvents=1;backgroundOutline=1;metaEdit=0;snapToPoint=1;fillColor=#f5f5f5;strokeColor=#0F0F0F;fontColor=light-dark(#f8fcf7, #c1c1c1);" vertex="1" parent="1">
          <mxGeometry x="166" y="251" width="71" height="68" as="geometry" />
        </mxCell>
        <mxCell id="W5OYuFE3z0aoe5HHRw2m-10" value="AWS CodePipeline" style="sketch=0;outlineConnect=0;dashed=0;verticalLabelPosition=middle;verticalAlign=bottom;align=center;html=1;whiteSpace=wrap;fontSize=10;fontStyle=1;spacing=3;shape=mxgraph.aws4.productIcon;prIcon=mxgraph.aws4.codepipeline;backgroundOutline=1;metaEdit=0;snapToPoint=1;fillColor=#f5f5f5;strokeColor=#0F0F0F;fontColor=light-dark(#f8fcf7, #c1c1c1);" vertex="1" parent="1">
          <mxGeometry x="323" y="386" width="80" height="110" as="geometry" />
        </mxCell>
        <mxCell id="W5OYuFE3z0aoe5HHRw2m-11" value="AWS CodeBuild" style="sketch=0;outlineConnect=0;dashed=0;verticalLabelPosition=middle;verticalAlign=bottom;align=center;html=1;whiteSpace=wrap;fontSize=10;fontStyle=1;spacing=3;shape=mxgraph.aws4.productIcon;prIcon=mxgraph.aws4.codebuild;backgroundOutline=1;metaEdit=0;snapToPoint=1;fillColor=#f5f5f5;strokeColor=#0F0F0F;fontColor=light-dark(#f8fcf7, #c1c1c1);" vertex="1" parent="1">
          <mxGeometry x="329" y="232" width="74" height="104" as="geometry" />
        </mxCell>
        <mxCell id="W5OYuFE3z0aoe5HHRw2m-12" value="AWS CodeDeploy" style="sketch=0;outlineConnect=0;dashed=0;verticalLabelPosition=middle;verticalAlign=bottom;align=center;html=1;whiteSpace=wrap;fontSize=10;fontStyle=1;spacing=3;shape=mxgraph.aws4.productIcon;prIcon=mxgraph.aws4.codedeploy;backgroundOutline=1;metaEdit=0;snapToPoint=1;fillColor=#f5f5f5;strokeColor=#0F0F0F;fontColor=light-dark(#f8fcf7, #c1c1c1);" vertex="1" parent="1">
          <mxGeometry x="326" y="69" width="80" height="110" as="geometry" />
        </mxCell>
        <mxCell id="W5OYuFE3z0aoe5HHRw2m-14" value="Amazon ECR" style="sketch=0;outlineConnect=0;dashed=0;verticalLabelPosition=middle;verticalAlign=bottom;align=center;html=1;whiteSpace=wrap;fontSize=10;fontStyle=1;spacing=3;shape=mxgraph.aws4.productIcon;prIcon=mxgraph.aws4.ecr;backgroundOutline=1;metaEdit=0;snapToPoint=1;fillColor=#f5f5f5;strokeColor=#0F0F0F;fontColor=light-dark(#f8fcf7, #c1c1c1);" vertex="1" parent="1">
          <mxGeometry x="464" y="145" width="80" height="100" as="geometry" />
        </mxCell>
        <mxCell id="W5OYuFE3z0aoe5HHRw2m-15" value="Amazon S3" style="sketch=0;outlineConnect=0;dashed=0;verticalLabelPosition=middle;verticalAlign=bottom;align=center;html=1;whiteSpace=wrap;fontSize=10;fontStyle=1;spacing=3;shape=mxgraph.aws4.productIcon;prIcon=mxgraph.aws4.s3;backgroundOutline=1;metaEdit=0;snapToPoint=1;fillColor=#f5f5f5;strokeColor=#0F0F0F;fontColor=light-dark(#f8fcf7, #c1c1c1);" vertex="1" parent="1">
          <mxGeometry x="589" y="145" width="82" height="106" as="geometry" />
        </mxCell>
        <mxCell id="W5OYuFE3z0aoe5HHRw2m-16" value="Amazon EC2" style="sketch=0;outlineConnect=0;dashed=0;verticalLabelPosition=middle;verticalAlign=bottom;align=center;html=1;whiteSpace=wrap;fontSize=10;fontStyle=1;spacing=3;shape=mxgraph.aws4.productIcon;prIcon=mxgraph.aws4.ec2;backgroundOutline=1;metaEdit=0;snapToPoint=1;fillColor=#f5f5f5;strokeColor=#0F0F0F;fontColor=light-dark(#f8fcf7, #c1c1c1);" vertex="1" parent="1">
          <mxGeometry x="725" y="245" width="78" height="100" as="geometry" />
        </mxCell>
        <mxCell id="W5OYuFE3z0aoe5HHRw2m-17" value="&lt;b&gt;&lt;font style=&quot;color: rgb(0, 0, 0);&quot;&gt;Developers&lt;/font&gt;&lt;/b&gt;" style="sketch=0;outlineConnect=0;dashed=0;verticalLabelPosition=bottom;verticalAlign=top;align=center;html=1;fontSize=12;fontStyle=0;aspect=fixed;shape=mxgraph.aws4.resourceIcon;resIcon=mxgraph.aws4.users;backgroundOutline=1;metaEdit=0;snapToPoint=1;fillColor=#f5f5f5;strokeColor=#0F0F0F;fontColor=light-dark(#f8fcf7, #c1c1c1);" vertex="1" parent="1">
          <mxGeometry x="34" y="242" width="60" height="60" as="geometry" />
        </mxCell>
        <mxCell id="W5OYuFE3z0aoe5HHRw2m-19" value="" style="endArrow=classic;html=1;rounded=0;fontSize=12;startSize=8;endSize=8;curved=1;backgroundOutline=1;metaEdit=0;snapToPoint=1;fillColor=#f5f5f5;strokeColor=#0F0F0F;fontColor=light-dark(#f8fcf7, #c1c1c1);" edge="1" parent="1">
          <mxGeometry width="50" height="50" relative="1" as="geometry">
            <mxPoint x="100" y="277" as="sourcePoint" />
            <mxPoint x="160" y="277" as="targetPoint" />
          </mxGeometry>
        </mxCell>
        <mxCell id="W5OYuFE3z0aoe5HHRw2m-20" value="" style="edgeStyle=segmentEdgeStyle;endArrow=classic;html=1;curved=0;rounded=0;endSize=8;startSize=8;fontSize=12;backgroundOutline=1;metaEdit=0;snapToPoint=1;fillColor=#f5f5f5;strokeColor=#0F0F0F;fontColor=light-dark(#f8fcf7, #c1c1c1);" edge="1" parent="1" source="W5OYuFE3z0aoe5HHRw2m-11" target="W5OYuFE3z0aoe5HHRw2m-14">
          <mxGeometry width="50" height="50" relative="1" as="geometry">
            <mxPoint x="169" y="360" as="sourcePoint" />
            <mxPoint x="248.5" y="459" as="targetPoint" />
          </mxGeometry>
        </mxCell>
        <mxCell id="W5OYuFE3z0aoe5HHRw2m-21" value="" style="edgeStyle=segmentEdgeStyle;endArrow=classic;html=1;curved=0;rounded=0;endSize=8;startSize=8;fontSize=12;backgroundOutline=1;metaEdit=0;snapToPoint=1;fillColor=#f5f5f5;strokeColor=#0F0F0F;fontColor=light-dark(#f8fcf7, #c1c1c1);" edge="1" parent="1" target="W5OYuFE3z0aoe5HHRw2m-15">
          <mxGeometry width="50" height="50" relative="1" as="geometry">
            <mxPoint x="404" y="291" as="sourcePoint" />
            <mxPoint x="667" y="358" as="targetPoint" />
          </mxGeometry>
        </mxCell>
        <mxCell id="W5OYuFE3z0aoe5HHRw2m-22" value="" style="edgeStyle=segmentEdgeStyle;endArrow=classic;html=1;curved=0;rounded=0;endSize=8;startSize=8;fontSize=12;backgroundOutline=1;metaEdit=0;snapToPoint=1;fillColor=#f5f5f5;strokeColor=#0F0F0F;fontColor=light-dark(#f8fcf7, #c1c1c1);" edge="1" parent="1" source="W5OYuFE3z0aoe5HHRw2m-15">
          <mxGeometry width="50" height="50" relative="1" as="geometry">
            <mxPoint x="619" y="144" as="sourcePoint" />
            <mxPoint x="410" y="105" as="targetPoint" />
            <Array as="points">
              <mxPoint x="627" y="105" />
            </Array>
          </mxGeometry>
        </mxCell>
        <mxCell id="W5OYuFE3z0aoe5HHRw2m-24" value="" style="edgeStyle=elbowEdgeStyle;elbow=vertical;endArrow=classic;html=1;curved=0;rounded=0;endSize=8;startSize=8;fontSize=12;exitX=0.5;exitY=1;exitDx=0;exitDy=0;exitPerimeter=0;backgroundOutline=1;metaEdit=0;snapToPoint=1;fillColor=#f5f5f5;strokeColor=#0F0F0F;fontColor=light-dark(#f8fcf7, #c1c1c1);" edge="1" parent="1" source="W5OYuFE3z0aoe5HHRw2m-2">
          <mxGeometry width="50" height="50" relative="1" as="geometry">
            <mxPoint x="477" y="355" as="sourcePoint" />
            <mxPoint x="344" y="385" as="targetPoint" />
            <Array as="points">
              <mxPoint x="261" y="361" />
            </Array>
          </mxGeometry>
        </mxCell>
        <mxCell id="W5OYuFE3z0aoe5HHRw2m-26" value="" style="endArrow=classic;html=1;rounded=0;fontSize=12;startSize=8;endSize=8;curved=1;backgroundOutline=1;metaEdit=0;snapToPoint=1;fillColor=#f5f5f5;strokeColor=#0F0F0F;fontColor=light-dark(#f8fcf7, #c1c1c1);" edge="1" parent="1" target="W5OYuFE3z0aoe5HHRw2m-11">
          <mxGeometry width="50" height="50" relative="1" as="geometry">
            <mxPoint x="364" y="384" as="sourcePoint" />
            <mxPoint x="527" y="305" as="targetPoint" />
          </mxGeometry>
        </mxCell>
        <mxCell id="W5OYuFE3z0aoe5HHRw2m-27" value="" style="endArrow=classic;html=1;rounded=0;fontSize=12;startSize=8;endSize=8;curved=1;backgroundOutline=1;metaEdit=0;snapToPoint=1;fillColor=#f5f5f5;strokeColor=#0F0F0F;fontColor=light-dark(#f8fcf7, #c1c1c1);" edge="1" parent="1">
          <mxGeometry width="50" height="50" relative="1" as="geometry">
            <mxPoint x="365.5" y="227" as="sourcePoint" />
            <mxPoint x="366.5" y="179" as="targetPoint" />
          </mxGeometry>
        </mxCell>
        <mxCell id="W5OYuFE3z0aoe5HHRw2m-29" value="" style="edgeStyle=elbowEdgeStyle;elbow=vertical;endArrow=classic;html=1;curved=0;rounded=0;endSize=8;startSize=8;fontSize=12;backgroundOutline=1;metaEdit=0;snapToPoint=1;labelBackgroundColor=none;fontColor=light-dark(#f8fcf7, #c1c1c1);fillColor=#f5f5f5;strokeColor=#0F0F0F;" edge="1" parent="1">
          <mxGeometry width="50" height="50" relative="1" as="geometry">
            <mxPoint x="363" y="66" as="sourcePoint" />
            <mxPoint x="763" y="237" as="targetPoint" />
            <Array as="points">
              <mxPoint x="657" y="44" />
            </Array>
          </mxGeometry>
        </mxCell>
        <mxCell id="W5OYuFE3z0aoe5HHRw2m-31" value="&lt;b&gt;&lt;font style=&quot;color: rgb(46, 46, 46);&quot;&gt;End Users&lt;/font&gt;&lt;/b&gt;" style="sketch=0;outlineConnect=0;dashed=0;verticalLabelPosition=bottom;verticalAlign=top;align=center;html=1;fontSize=12;fontStyle=0;aspect=fixed;shape=mxgraph.aws4.resourceIcon;resIcon=mxgraph.aws4.users;backgroundOutline=1;metaEdit=0;snapToPoint=1;fillColor=#f5f5f5;strokeColor=#0F0F0F;fontColor=light-dark(#f8fcf7, #c1c1c1);" vertex="1" parent="1">
          <mxGeometry x="898" y="239" width="72" height="72" as="geometry" />
        </mxCell>
        <mxCell id="W5OYuFE3z0aoe5HHRw2m-33" value="" style="endArrow=classic;html=1;rounded=0;fontSize=12;startSize=8;endSize=8;curved=1;backgroundOutline=1;metaEdit=0;snapToPoint=1;fillColor=#f5f5f5;strokeColor=#0F0F0F;fontColor=light-dark(#f8fcf7, #c1c1c1);" edge="1" parent="1">
          <mxGeometry width="50" height="50" relative="1" as="geometry">
            <mxPoint x="899" y="280" as="sourcePoint" />
            <mxPoint x="809" y="280" as="targetPoint" />
          </mxGeometry>
        </mxCell>
        <mxCell id="W5OYuFE3z0aoe5HHRw2m-36" value="&lt;b&gt;&lt;font style=&quot;color: rgb(46, 46, 46);&quot;&gt;Github&lt;/font&gt;&lt;/b&gt;" style="text;html=1;align=center;verticalAlign=middle;whiteSpace=wrap;rounded=0;fillColor=#f5f5f5;strokeColor=#0F0F0F;fontColor=light-dark(#f8fcf7, #c1c1c1);" vertex="1" parent="1">
          <mxGeometry x="175" y="217" width="60" height="30" as="geometry" />
        </mxCell>
        <mxCell id="W5OYuFE3z0aoe5HHRw2m-38" value="" style="rounded=0;whiteSpace=wrap;html=1;labelBackgroundColor=light-dark(#e66060, #ededed);fillColor=none;dashed=1;" vertex="1" parent="1">
          <mxGeometry x="301" y="60.5" width="134" height="449" as="geometry" />
        </mxCell>
        <mxCell id="W5OYuFE3z0aoe5HHRw2m-39" value="&lt;font style=&quot;font-size: 10px;&quot;&gt;&lt;b&gt;CICD Pipeline&lt;/b&gt;&lt;/font&gt;" style="text;html=1;align=center;verticalAlign=middle;whiteSpace=wrap;rounded=0;" vertex="1" parent="1">
          <mxGeometry x="301" y="191" width="60" height="30" as="geometry" />
        </mxCell>
        <mxCell id="W5OYuFE3z0aoe5HHRw2m-41" value="&lt;b&gt;Code Push&lt;/b&gt;" style="text;html=1;align=center;verticalAlign=middle;whiteSpace=wrap;rounded=0;" vertex="1" parent="1">
          <mxGeometry x="100" y="289" width="60" height="30" as="geometry" />
        </mxCell>
        <mxCell id="W5OYuFE3z0aoe5HHRw2m-42" value="&lt;font style=&quot;font-size: 10px;&quot;&gt;Code Build Artifacts to S3&lt;/font&gt;" style="text;html=1;align=center;verticalAlign=middle;whiteSpace=wrap;rounded=0;" vertex="1" parent="1">
          <mxGeometry x="560" y="299" width="115" height="30" as="geometry" />
        </mxCell>
        <mxCell id="W5OYuFE3z0aoe5HHRw2m-44" value="" style="edgeStyle=segmentEdgeStyle;endArrow=classic;html=1;curved=0;rounded=0;endSize=8;startSize=8;fontSize=12;backgroundOutline=1;metaEdit=0;snapToPoint=1;fillColor=#f5f5f5;strokeColor=#0F0F0F;fontColor=light-dark(#f8fcf7, #c1c1c1);" edge="1" parent="1" target="W5OYuFE3z0aoe5HHRw2m-12">
          <mxGeometry width="50" height="50" relative="1" as="geometry">
            <mxPoint x="506" y="143" as="sourcePoint" />
            <mxPoint x="473" y="122" as="targetPoint" />
            <Array as="points">
              <mxPoint x="506" y="122" />
            </Array>
          </mxGeometry>
        </mxCell>
        <mxCell id="W5OYuFE3z0aoe5HHRw2m-45" value="&lt;font style=&quot;font-size: 10px;&quot;&gt;Latest Build image to ECR&lt;/font&gt;" style="text;html=1;align=center;verticalAlign=middle;whiteSpace=wrap;rounded=0;" vertex="1" parent="1">
          <mxGeometry x="506" y="254" width="80" height="30" as="geometry" />
        </mxCell>
        <mxCell id="W5OYuFE3z0aoe5HHRw2m-46" value="VPC" style="sketch=0;outlineConnect=0;gradientColor=none;html=1;whiteSpace=wrap;fontSize=12;fontStyle=0;shape=mxgraph.aws4.group;grIcon=mxgraph.aws4.group_vpc;strokeColor=#879196;fillColor=none;verticalAlign=top;align=left;spacingLeft=30;fontColor=#879196;dashed=1;dashPattern=8 8;strokeWidth=0;" vertex="1" parent="1">
          <mxGeometry x="262" y="27" width="577" height="494" as="geometry" />
        </mxCell>
      </root>
    </mxGraphModel>
  </diagram>
</mxfile>
